<?xml version="1.0" encoding="iso-8859-1"?>
<!-- Generator: Adobe Illustrator 16.0.0, SVG Export Plug-In . SVG Version: 6.00 Build 0)  -->
<!DOCTYPE svg PUBLIC "-//W3C//DTD SVG 1.1//EN" "http://www.w3.org/Graphics/SVG/1.1/DTD/svg11.dtd">
<svg version="1.1" id="Capa_1" xmlns="http://www.w3.org/2000/svg" xmlns:xlink="http://www.w3.org/1999/xlink" x="0px" y="0px"
	 width="47.901px" height="47.902px" viewBox="0 0 47.901 47.902" style="enable-background:new 0 0 47.901 47.902;"
	 xml:space="preserve">
<g>
	<g id="Layer_1_copy_27_">
		<path d="M18.651,28.578l1.97-2.115v4.303L18.651,28.578z M12.383,26.994v0.977h2.815v1.096h-2.815v1.068h3.152L17,28.558
			l-1.403-1.562h-3.215V26.994z M47.262,27.8c0.438,0.453,0.64,1.01,0.64,1.758c0,1.615-1.083,2.58-2.9,2.58h-2.498
			c-0.367,0-0.681-0.223-0.814-0.539c-0.485,0.344-1.133,0.539-1.928,0.539h-2.498c-0.142,0-0.268-0.039-0.385-0.096
			c-0.117,0.057-0.246,0.096-0.385,0.096h-4.281c-0.142,0-0.271-0.041-0.391-0.1c-0.118,0.061-0.248,0.1-0.392,0.1h-1.287
			c-0.488,0-0.887-0.396-0.887-0.885v-0.781c0.002-0.076,0.002-0.191-0.002-0.287c-0.06-0.004-0.143-0.008-0.261-0.008H28.51v1.076
			c0,0.488-0.396,0.885-0.887,0.885h-1.289c-0.49,0-0.887-0.396-0.887-0.885v-1.365c-0.456,0.271-1.083,0.449-1.95,0.449h-0.713
			v0.916c0,0.488-0.396,0.885-0.887,0.885h-2.493c-0.253,0-0.495-0.107-0.663-0.297l-0.929-1.045l-0.979,1.059
			c-0.168,0.182-0.403,0.285-0.65,0.285h-5.081c-0.489,0-0.886-0.396-0.886-0.887v-5.367c0-0.49,0.396-0.887,0.886-0.887h5.158
			c0.253,0,0.492,0.104,0.659,0.295l0.932,1.035l0.971-1.047C18.991,25.1,19.226,25,19.473,25h4.098
			c0.897,0,1.528,0.199,1.979,0.492C25.696,25.203,25.988,25,26.333,25h2.963c0.68,0,1.34,0.025,1.961,0.357
			c0.064,0.038,0.109,0.088,0.17,0.131C31.574,25.201,31.865,25,32.21,25h4.28c0.332,0,0.609,0.188,0.763,0.463
			C37.677,25.175,38.234,25,38.941,25h2.57c0.387,0,0.703,0.248,0.826,0.592C42.777,25.236,43.381,25,44.182,25h2.57
			c0.49,0,0.887,0.396,0.887,0.887v1.143c0,0.312-0.162,0.586-0.405,0.744C47.243,27.781,47.253,27.791,47.262,27.8z M25.732,27.654
			c0-1.486-1.145-1.771-2.162-1.771h-4.098l-1.632,1.76l-1.58-1.76h-5.158v5.368h5.081l1.642-1.776l1.58,1.776h2.493v-1.801h1.6
			C24.62,29.453,25.732,29.143,25.732,27.654z M30.591,28.759c0.336-0.135,0.909-0.572,0.909-1.43c0-0.611-0.255-0.947-0.659-1.191
			c-0.423-0.225-0.895-0.252-1.543-0.252h-2.963v5.367h1.289v-1.959h1.37c0.47,0,0.755,0.045,0.939,0.236
			c0.24,0.25,0.209,0.729,0.209,1.051v0.672h1.287v-1.064c-0.006-0.473-0.03-0.717-0.213-0.979
			C31.108,29.052,30.875,28.863,30.591,28.759z M36.492,25.886h-4.28v5.367h4.28V30.14l-3.004-0.006v-1.066h2.93v-1.096h-2.93
			v-0.977h3.004V25.886z M41.771,29.557c0-0.551-0.133-0.879-0.385-1.138c-0.289-0.293-0.768-0.413-1.463-0.432l-0.689-0.02
			c-0.219,0-0.363-0.014-0.5-0.061c-0.161-0.062-0.28-0.197-0.28-0.4c0-0.17,0.053-0.299,0.194-0.387
			c0.128-0.088,0.279-0.098,0.514-0.098h2.353v-1.142h-2.57c-1.346,0-1.834,0.817-1.834,1.598c0,1.697,1.503,1.621,2.701,1.66
			c0.225,0,0.357,0.037,0.457,0.119c0.09,0.075,0.156,0.198,0.156,0.354c0,0.146-0.062,0.269-0.15,0.351
			c-0.108,0.103-0.281,0.133-0.523,0.133h-2.487v1.153h2.498C41.052,31.253,41.771,30.714,41.771,29.557z M47.014,29.557
			c0-0.551-0.135-0.879-0.385-1.138c-0.289-0.293-0.769-0.413-1.465-0.432l-0.689-0.02c-0.219,0-0.362-0.014-0.5-0.061
			c-0.159-0.062-0.279-0.197-0.279-0.4c0-0.17,0.052-0.299,0.193-0.387c0.127-0.088,0.279-0.098,0.515-0.098h2.352v-1.142h-2.57
			c-1.346,0-1.834,0.817-1.834,1.598c0,1.697,1.502,1.621,2.701,1.66c0.226,0,0.358,0.037,0.457,0.119
			c0.09,0.075,0.156,0.198,0.156,0.354c0,0.146-0.062,0.269-0.15,0.351c-0.107,0.103-0.28,0.133-0.522,0.133h-2.488v1.153h2.498
			C46.293,31.253,47.014,30.714,47.014,29.557z M23.571,26.994h-1.672v1.367h1.656c0.493,0,0.8-0.244,0.8-0.707
			C24.354,27.182,24.035,26.994,23.571,26.994z M24.325,18.847c0.165-0.087,0.264-0.276,0.264-0.51c0-0.23-0.103-0.396-0.269-0.474
			c-0.152-0.086-0.386-0.097-0.608-0.097h-1.58v1.191h1.559C23.938,18.957,24.146,18.953,24.325,18.847z M29.816,27.093
			C29.66,27,29.43,26.996,29.204,26.996h-1.58v1.205h1.559c0.25,0,0.463-0.008,0.636-0.109c0.166-0.102,0.265-0.285,0.265-0.516
			C30.081,27.345,29.982,27.179,29.816,27.093z M34.554,17.56l-0.881,2.139h1.771L34.554,17.56z M3.234,19.699h1.749L4.105,17.56
			L3.234,19.699z M10.413,22.901c-0.35,0-0.668-0.207-0.81-0.527l-0.168-0.381v0.021c0,0.489-0.396,0.886-0.886,0.886H5.94
			c-0.36,0-0.684-0.217-0.82-0.549l-0.267-0.648H3.367l-0.271,0.652c-0.137,0.33-0.46,0.546-0.816,0.546H0.886
			c-0.298,0-0.576-0.15-0.74-0.398c-0.163-0.25-0.192-0.562-0.074-0.837l2.296-5.367c0.14-0.325,0.46-0.537,0.815-0.537h1.904
			c0.355,0,0.675,0.211,0.815,0.536l0.481,1.122v-0.771c0-0.489,0.396-0.886,0.886-0.886h2.094c0.344,0,0.659,0.201,0.805,0.515
			l0.839,1.822l0.762-1.796c0.139-0.328,0.46-0.541,0.814-0.541h2.138c0.18,0,0.337,0.067,0.478,0.159
			c0.14-0.092,0.297-0.159,0.478-0.159h4.284c0.166,0,0.313,0.058,0.444,0.137c0.134-0.079,0.279-0.137,0.445-0.137h2.95
			c0.763,0,1.396,0.027,1.998,0.375c0.062,0.036,0.104,0.084,0.159,0.124c0.146-0.292,0.439-0.499,0.789-0.499h1.31
			c0.442,0,0.793,0.33,0.859,0.753c0.574-0.498,1.354-0.753,2.408-0.753h1.239c0.199,0,0.384,0.065,0.531,0.176
			c0.148-0.112,0.334-0.176,0.529-0.176h1.922c0.354,0,0.674,0.212,0.813,0.537l0.471,1.102v-0.753c0-0.489,0.396-0.886,0.886-0.886
			h1.955c0.309,0,0.596,0.163,0.758,0.428l0.609,1.011v-0.554c0-0.489,0.396-0.886,0.887-0.886h1.313
			c0.488,0,0.886,0.397,0.886,0.886v5.367c0,0.489-0.396,0.886-0.886,0.886H41.42c-0.312,0-0.599-0.163-0.76-0.428l-0.787-1.305
			v0.847c0,0.489-0.396,0.886-0.886,0.886h-2.61c-0.359,0-0.681-0.216-0.818-0.545l-0.271-0.652h-1.478l-0.261,0.643
			c-0.135,0.335-0.459,0.555-0.817,0.555h-1.503c-0.57,0-1.594-0.103-2.321-0.714c-0.083,0.404-0.423,0.714-0.853,0.714h-1.31
			c-0.146,0-0.278-0.044-0.401-0.107c-0.121,0.062-0.252,0.107-0.397,0.107h-1.294c-0.486,0-0.883-0.393-0.887-0.879l-0.005-0.677
			l0.002-0.118c0-0.072,0.002-0.18-0.004-0.271c-0.059-0.004-0.138-0.007-0.249-0.007h-0.49v1.066c0,0.489-0.396,0.886-0.886,0.886
			H20.85c-0.166,0-0.312-0.058-0.445-0.137c-0.131,0.079-0.278,0.137-0.444,0.137h-4.284c-0.181,0-0.338-0.068-0.478-0.159
			c-0.141,0.091-0.298,0.159-0.478,0.159h-1.315c-0.49,0-0.886-0.396-0.886-0.885v-0.022l-0.17,0.38
			c-0.142,0.321-0.458,0.528-0.81,0.528L10.413,22.901L10.413,22.901z M28.682,19.372c0,0.975,0.234,1.593,0.688,2.049
			c0.446,0.455,1.233,0.593,1.856,0.593h1.502l0.482-1.197h2.666l0.5,1.197h2.61v-4.028l2.433,4.028h1.817v-5.367h-1.313v3.738
			l-2.254-3.738h-1.955v5.076l-2.17-5.076h-1.922l-1.812,4.22h-0.575c-0.335,0-0.695-0.064-0.894-0.277
			c-0.24-0.271-0.354-0.685-0.354-1.259c0-0.563,0.149-0.99,0.368-1.216c0.254-0.249,0.519-0.318,0.986-0.318h1.215v-1.15h-1.239
			c-0.886,0-1.535,0.197-1.948,0.625C28.823,17.848,28.682,18.576,28.682,19.372z M31.348,18.683c-0.301,0-0.332,0.031-0.369,0.067
			c-0.012,0.017-0.102,0.21-0.102,0.582c0,0.368,0.059,0.545,0.102,0.625c0.046,0.012,0.129,0.026,0.252,0.026l0.557-1.299
			L31.348,18.683L31.348,18.683z M26.746,22.014h1.31v-5.367h-1.31V22.014z M20.849,22.014h1.284v-1.952h1.375
			c0.462,0,0.748,0.041,0.935,0.229c0.233,0.259,0.202,0.723,0.202,1.045l0.006,0.677h1.294V20.96c0-0.479-0.031-0.717-0.213-0.984
			c-0.114-0.156-0.354-0.344-0.635-0.452c0.332-0.132,0.903-0.575,0.903-1.43c0-0.599-0.243-0.949-0.649-1.189
			c-0.414-0.24-0.897-0.257-1.553-0.257h-2.95V22.014z M15.676,22.014h4.284v-1.11h-3.002v-1.072h2.931v-1.1h-2.931v-0.967h3.002
			v-1.118h-4.284V22.014z M10.413,22.014h1.127l1.86-4.203l0.005,4.203h1.315v-5.367h-2.138l-1.541,3.641l-1.679-3.641H7.268v5.082
			l-2.183-5.082H3.181l-2.297,5.367h1.394l0.498-1.197h2.67l0.493,1.197H8.55v-4.207L10.413,22.014z"/>
	</g>
</g>
<g>
</g>
<g>
</g>
<g>
</g>
<g>
</g>
<g>
</g>
<g>
</g>
<g>
</g>
<g>
</g>
<g>
</g>
<g>
</g>
<g>
</g>
<g>
</g>
<g>
</g>
<g>
</g>
<g>
</g>
</svg>
